<?xml version="1.0" standalone="no"?><!DOCTYPE svg PUBLIC "-//W3C//DTD SVG 1.1//EN" "http://www.w3.org/Graphics/SVG/1.1/DTD/svg11.dtd">
<svg x="0.0000mm" y="0.0000mm" width="175.6830mm" height="26.4580mm" viewBox="0.0000 0.0000 175.6830 26.4580" version="1.1" xmlns="http://www.w3.org/2000/svg" shape-rendering="crispEdges">
<title>TBarCode - 11.15.0.16817</title>
<desc>BarCode licensed to MEM:TEC-IT Datenverarbeitung GmbH Internal License</desc>
<g fill="rgb(0%,0%,0%)">
</g>
<g fill="rgb(100%,100%,100%)">
<rect x="0.0000" y="0.0000" width="175.6830" height="26.4580" />
</g>
<g fill="rgb(0%,0%,0%)">
</g>
<g fill="rgb(0%,0%,0%)">
<rect x="0.0000" y="0.0000" width="1.0583" height="26.4580" />
<rect x="1.5875" y="0.0000" width="0.5292" height="26.4580" />
<rect x="3.1750" y="0.0000" width="0.5292" height="26.4580" />
<rect x="5.8208" y="0.0000" width="0.5292" height="26.4580" />
<rect x="7.4083" y="0.0000" width="1.0583" height="26.4580" />
<rect x="10.5833" y="0.0000" width="0.5292" height="26.4580" />
<rect x="11.6416" y="0.0000" width="0.5292" height="26.4580" />
<rect x="13.2291" y="0.0000" width="2.1167" height="26.4580" />
<rect x="15.8750" y="0.0000" width="0.5292" height="26.4580" />
<rect x="17.4625" y="0.0000" width="0.5292" height="26.4580" />
<rect x="19.0500" y="0.0000" width="2.1167" height="26.4580" />
<rect x="21.6958" y="0.0000" width="0.5292" height="26.4580" />
<rect x="23.2833" y="0.0000" width="0.5292" height="26.4580" />
<rect x="24.3416" y="0.0000" width="0.5292" height="26.4580" />
<rect x="25.9291" y="0.0000" width="2.1167" height="26.4580" />
<rect x="29.1041" y="0.0000" width="0.5292" height="26.4580" />
<rect x="30.1624" y="0.0000" width="2.1167" height="26.4580" />
<rect x="33.3374" y="0.0000" width="0.5292" height="26.4580" />
<rect x="34.9249" y="0.0000" width="1.5875" height="26.4580" />
<rect x="37.5708" y="0.0000" width="0.5292" height="26.4580" />
<rect x="39.1583" y="0.0000" width="1.0583" height="26.4580" />
<rect x="40.7458" y="0.0000" width="0.5292" height="26.4580" />
<rect x="41.8041" y="0.0000" width="1.5875" height="26.4580" />
<rect x="44.4499" y="0.0000" width="1.0583" height="26.4580" />
<rect x="46.5666" y="0.0000" width="0.5292" height="26.4580" />
<rect x="47.6249" y="0.0000" width="1.5875" height="26.4580" />
<rect x="50.2707" y="0.0000" width="1.0583" height="26.4580" />
<rect x="52.3874" y="0.0000" width="0.5292" height="26.4580" />
<rect x="53.9749" y="0.0000" width="1.0583" height="26.4580" />
<rect x="55.5624" y="0.0000" width="0.5292" height="26.4580" />
<rect x="58.2082" y="0.0000" width="0.5292" height="26.4580" />
<rect x="60.8541" y="0.0000" width="1.0583" height="26.4580" />
<rect x="62.4415" y="0.0000" width="0.5292" height="26.4580" />
<rect x="64.0290" y="0.0000" width="0.5292" height="26.4580" />
<rect x="65.6165" y="0.0000" width="2.1167" height="26.4580" />
<rect x="68.2624" y="0.0000" width="0.5292" height="26.4580" />
<rect x="69.8499" y="0.0000" width="0.5292" height="26.4580" />
<rect x="71.4374" y="0.0000" width="1.0583" height="26.4580" />
<rect x="74.6124" y="0.0000" width="0.5292" height="26.4580" />
<rect x="75.6707" y="0.0000" width="0.5292" height="26.4580" />
<rect x="77.2582" y="0.0000" width="2.1167" height="26.4580" />
<rect x="80.4332" y="0.0000" width="0.5292" height="26.4580" />
<rect x="81.4915" y="0.0000" width="0.5292" height="26.4580" />
<rect x="83.0790" y="0.0000" width="0.5292" height="26.4580" />
<rect x="85.7248" y="0.0000" width="1.0583" height="26.4580" />
<rect x="87.3123" y="0.0000" width="0.5292" height="26.4580" />
<rect x="88.8998" y="0.0000" width="1.0583" height="26.4580" />
<rect x="91.0165" y="0.0000" width="1.5875" height="26.4580" />
<rect x="93.1332" y="0.0000" width="0.5292" height="26.4580" />
<rect x="95.7790" y="0.0000" width="0.5292" height="26.4580" />
<rect x="96.8373" y="0.0000" width="1.0583" height="26.4580" />
<rect x="98.9540" y="0.0000" width="0.5292" height="26.4580" />
<rect x="101.0706" y="0.0000" width="2.1167" height="26.4580" />
<rect x="103.7165" y="0.0000" width="0.5292" height="26.4580" />
<rect x="104.7748" y="0.0000" width="2.1167" height="26.4580" />
<rect x="107.4206" y="0.0000" width="1.5875" height="26.4580" />
<rect x="109.5373" y="0.0000" width="0.5292" height="26.4580" />
<rect x="110.5956" y="0.0000" width="0.5292" height="26.4580" />
<rect x="111.6540" y="0.0000" width="1.5875" height="26.4580" />
<rect x="114.2998" y="0.0000" width="1.0583" height="26.4580" />
<rect x="116.4164" y="0.0000" width="0.5292" height="26.4580" />
<rect x="119.0623" y="0.0000" width="0.5292" height="26.4580" />
<rect x="120.1206" y="0.0000" width="1.0583" height="26.4580" />
<rect x="122.2373" y="0.0000" width="1.0583" height="26.4580" />
<rect x="123.8248" y="0.0000" width="1.5875" height="26.4580" />
<rect x="126.4706" y="0.0000" width="0.5292" height="26.4580" />
<rect x="128.0581" y="0.0000" width="2.1167" height="26.4580" />
<rect x="130.7039" y="0.0000" width="0.5292" height="26.4580" />
<rect x="132.2914" y="0.0000" width="0.5292" height="26.4580" />
<rect x="133.8789" y="0.0000" width="0.5292" height="26.4580" />
<rect x="135.4664" y="0.0000" width="0.5292" height="26.4580" />
<rect x="136.5247" y="0.0000" width="1.0583" height="26.4580" />
<rect x="139.6997" y="0.0000" width="0.5292" height="26.4580" />
<rect x="141.2872" y="0.0000" width="0.5292" height="26.4580" />
<rect x="142.8747" y="0.0000" width="2.1167" height="26.4580" />
<rect x="145.5206" y="0.0000" width="0.5292" height="26.4580" />
<rect x="147.1081" y="0.0000" width="1.0583" height="26.4580" />
<rect x="148.6956" y="0.0000" width="0.5292" height="26.4580" />
<rect x="151.3414" y="0.0000" width="0.5292" height="26.4580" />
<rect x="152.9289" y="0.0000" width="0.5292" height="26.4580" />
<rect x="153.9872" y="0.0000" width="1.0583" height="26.4580" />
<rect x="157.1622" y="0.0000" width="0.5292" height="26.4580" />
<rect x="158.2205" y="0.0000" width="2.1167" height="26.4580" />
<rect x="161.3955" y="0.0000" width="0.5292" height="26.4580" />
<rect x="162.9830" y="0.0000" width="0.5292" height="26.4580" />
<rect x="165.0997" y="0.0000" width="1.0583" height="26.4580" />
<rect x="166.6872" y="0.0000" width="0.5292" height="26.4580" />
<rect x="168.8038" y="0.0000" width="1.0583" height="26.4580" />
<rect x="171.4497" y="0.0000" width="1.5875" height="26.4580" />
<rect x="173.5663" y="0.0000" width="0.5292" height="26.4580" />
<rect x="174.6247" y="0.0000" width="1.0583" height="26.4580" />
</g>
</svg>
